<svg xmlns="http://www.w3.org/2000/svg" xmlns:xlink="http://www.w3.org/1999/xlink" id="Layer_1" viewBox="0 0 180.9 62.52"><defs><style>.cls-1{fill:url(#New_Gradient_Swatch_1);}.cls-1,.cls-2{stroke-width:0px;}.cls-3{fill:none;stroke:#fff;stroke-width:2.13px;}.cls-2{fill:#231f20;}</style><radialGradient id="New_Gradient_Swatch_1" cx="28.06" cy="35.93" fx="28.06" fy="35.93" r="31.27" gradientTransform="translate(3.13 -4.51) rotate(.2)" gradientUnits="userSpaceOnUse"><stop offset="0" stop-color="#6e87c4"></stop><stop offset=".19" stop-color="#6985c2"></stop><stop offset=".38" stop-color="#5d7fbf"></stop><stop offset=".57" stop-color="#4877ba"></stop><stop offset=".77" stop-color="#2b6ab3"></stop><stop offset=".97" stop-color="#065aaa"></stop><stop offset="1" stop-color="#0058a9"></stop></radialGradient></defs><path class="cls-2" d="m79.78,11.73h3.25s-4.64,6.92-4.64,6.92c.29-.11.56-.19.83-.25.26-.05.51-.08.76-.08,1.77,0,3.29.68,4.54,2.02,1.25,1.34,1.87,2.96,1.87,4.84,0,.63-.09,1.27-.27,1.9-.18.63-.44,1.25-.78,1.87-.65,1.17-1.49,2.06-2.52,2.66-1.03.6-2.22.9-3.57.9-.96,0-1.86-.18-2.71-.54-.84-.36-1.59-.87-2.25-1.55-.65-.67-1.15-1.44-1.51-2.29-.36-.85-.53-1.71-.53-2.59,0-1.75,1.03-4.13,3.06-7.14h0s4.49-6.67,4.49-6.67Zm-4.76,13.39c0,1.25.4,2.32,1.23,3.2.82.88,1.81,1.32,2.97,1.33,1.22,0,2.23-.4,3.03-1.21.8-.81,1.2-1.85,1.2-3.12,0-1.27-.38-2.31-1.16-3.12-.78-.81-1.76-1.22-2.95-1.23-1.19,0-2.21.4-3.05,1.23-.84.82-1.26,1.8-1.26,2.94Z"></path><path class="cls-2" d="m94.49,32.16h-2.98s.06-17.98.06-17.98h-3.55s0-2.42,0-2.42l6.54.02-.07,20.38Z"></path><path class="cls-2" d="m103.11,20.9c-.69-.48-1.21-1.07-1.57-1.76-.36-.7-.53-1.47-.53-2.32,0-1.48.53-2.75,1.58-3.8,1.05-1.05,2.32-1.57,3.83-1.57,1.57,0,2.87.53,3.92,1.57,1.05,1.04,1.57,2.33,1.56,3.86,0,.86-.2,1.63-.58,2.32s-.93,1.26-1.65,1.72c1.02.45,1.78,1.1,2.3,1.96.52.86.78,1.89.77,3.1,0,1.93-.61,3.52-1.82,4.77-1.21,1.25-2.75,1.87-4.64,1.86-1.75,0-3.23-.64-4.42-1.91-1.19-1.27-1.79-2.82-1.78-4.65,0-1.23.25-2.27.75-3.11.49-.84,1.25-1.52,2.28-2.04Zm-.24,5.14c0,1.09.32,2,.98,2.71.66.72,1.48,1.08,2.47,1.08,1.04,0,1.91-.34,2.59-1.04.68-.7,1.03-1.59,1.03-2.67,0-1.12-.32-2.02-.96-2.7-.65-.68-1.5-1.03-2.55-1.03-1.07,0-1.93.33-2.59.99-.65.67-.98,1.55-.98,2.66Zm1.03-9.23c0,.85.22,1.53.68,2.03.46.51,1.07.76,1.85.76.8,0,1.43-.24,1.89-.71.46-.48.69-1.15.69-2.01,0-.79-.23-1.44-.7-1.95-.47-.51-1.07-.77-1.81-.77-.75,0-1.37.25-1.86.75-.49.5-.74,1.14-.74,1.9Z"></path><path class="cls-2" d="m115.02,26.02h2.87c.14,1.15.59,2.06,1.33,2.74.74.68,1.65,1.03,2.72,1.03,1.24,0,2.27-.41,3.09-1.25.82-.84,1.23-1.9,1.24-3.19,0-1.27-.39-2.3-1.19-3.09-.8-.79-1.85-1.19-3.16-1.19-.77,0-1.45.14-2.03.44-.58.3-1.04.73-1.38,1.3l-2.53-.56,1.94-10.39,9.42.03v2.87s-7.34-.03-7.34-.03l-1,4.78c.47-.43.99-.74,1.56-.95.57-.2,1.21-.3,1.91-.3,1.9,0,3.51.7,4.81,2.07,1.3,1.38,1.95,3.06,1.94,5.05,0,2.07-.72,3.8-2.14,5.19-1.42,1.39-3.2,2.08-5.35,2.07-1.97,0-3.55-.61-4.76-1.8-1.2-1.19-1.85-2.81-1.95-4.84Z"></path><path class="cls-2" d="m131.37,25.13l.02-6.02c0-1.26.1-2.23.3-2.92.19-.69.51-1.32.95-1.89.68-.89,1.52-1.57,2.5-2.04.98-.47,2.06-.7,3.25-.69,1.23,0,2.35.26,3.35.77,1,.51,1.84,1.24,2.52,2.21.37.54.64,1.17.81,1.88.17.71.25,1.59.25,2.63l-.02,6.21c0,1.11-.1,2.03-.28,2.76-.18.73-.46,1.36-.85,1.89-.66.9-1.5,1.6-2.51,2.09-1.02.49-2.13.73-3.35.73-1.18,0-2.26-.24-3.25-.72-.99-.47-1.83-1.16-2.54-2.06-.41-.52-.7-1.16-.89-1.91-.18-.75-.27-1.72-.27-2.9Zm3.04.53v.31c0,.65.03,1.14.11,1.45.07.31.2.6.38.85.34.51.82.92,1.42,1.21.6.29,1.26.44,1.97.44,1.33,0,2.31-.35,2.97-1.07.66-.72.99-1.81.99-3.27l.02-6.83c0-.85-.03-1.44-.11-1.79-.07-.34-.2-.64-.37-.9-.34-.52-.82-.93-1.42-1.23-.61-.3-1.27-.45-2-.45-.71,0-1.36.13-1.95.41-.59.27-1.06.66-1.42,1.16-.2.27-.34.6-.42.98-.09.39-.13.97-.13,1.76l-.03,6.97Z"></path><path class="cls-2" d="m71.99,41.92h1.47s-.02,6.17-.02,6.17c0,1.58.25,2.71.76,3.37.51.66,1.36.99,2.53,1,.67,0,1.26-.13,1.77-.4.51-.27.92-.66,1.23-1.17.18-.3.31-.66.38-1.07.08-.41.12-1.13.12-2.15l.02-5.71h1.49s-.04,11.63-.04,11.63h-1.49s0-1.26,0-1.26c-.45.55-.96.94-1.52,1.19-.56.24-1.23.37-2.02.36-1.68,0-2.88-.46-3.62-1.37-.74-.91-1.1-2.41-1.09-4.51l.02-6.06Z"></path><path class="cls-2" d="m83.4,49.93h1.53s0,.05,0,.05c0,.73.2,1.33.62,1.8.41.48.93.72,1.54.72.58,0,1.07-.18,1.46-.54.39-.36.58-.83.59-1.38,0-.56-.15-1-.45-1.34-.31-.34-.86-.66-1.66-.96-1.29-.46-2.13-.93-2.52-1.41-.39-.48-.59-1.12-.58-1.92,0-.91.34-1.68,1-2.31.66-.63,1.46-.95,2.4-.94.99,0,1.78.29,2.36.85.58.57.89,1.35.93,2.36h-1.6c-.03-.56-.21-.98-.52-1.29-.31-.3-.74-.46-1.28-.46-.49,0-.89.16-1.22.49-.33.33-.49.73-.49,1.22,0,.34.06.64.2.87.13.24.35.45.66.64.28.18.69.35,1.23.51.54.16.9.29,1.08.36.72.31,1.26.73,1.6,1.24.34.52.51,1.17.51,1.97,0,1-.35,1.83-1.05,2.48-.7.65-1.58.98-2.65.97-1.09,0-1.97-.36-2.63-1.08-.66-.72-1-1.68-1.04-2.89Z"></path><path class="cls-2" d="m103.94,48.32l-10.49-.04c.09,1.26.54,2.29,1.36,3.07.82.78,1.85,1.18,3.08,1.18.87,0,1.66-.22,2.36-.67.7-.45,1.24-1.08,1.62-1.88h1.69c-.54,1.29-1.3,2.27-2.27,2.96-.97.69-2.09,1.03-3.37,1.02-1.69,0-3.12-.61-4.28-1.82-1.16-1.21-1.74-2.66-1.74-4.35,0-1.77.58-3.23,1.73-4.38,1.15-1.15,2.61-1.72,4.4-1.72,1.75,0,3.17.61,4.27,1.82,1.1,1.21,1.64,2.77,1.64,4.7v.11Zm-1.64-1.31c-.28-1.29-.79-2.27-1.54-2.92-.75-.66-1.73-.99-2.94-.99-1.13,0-2.08.34-2.87,1.04-.78.7-1.27,1.65-1.45,2.84l8.8.03Z"></path><path class="cls-2" d="m107.12,53.67h-1.51s.04-11.63.04-11.63h1.41s0,1.35,0,1.35c.37-.51.77-.89,1.2-1.12.43-.24.94-.36,1.52-.37v1.62c-.93.08-1.6.36-2.01.83-.41.47-.61,1.25-.62,2.32l-.02,7.01Z"></path><path class="cls-2" d="m110.15,50.02h1.53v.05c0,.73.2,1.33.62,1.8.41.48.93.72,1.54.72.58,0,1.07-.18,1.46-.54.39-.36.58-.83.59-1.38,0-.56-.15-1-.45-1.34-.31-.34-.86-.66-1.66-.96-1.29-.46-2.13-.93-2.52-1.41-.39-.48-.59-1.12-.58-1.92,0-.91.33-1.68,1-2.31.66-.63,1.46-.95,2.4-.94.99,0,1.78.29,2.36.85.58.56.89,1.35.93,2.36h-1.6c-.03-.56-.21-.98-.52-1.29-.31-.3-.74-.46-1.28-.46-.49,0-.89.16-1.22.49-.33.33-.49.73-.49,1.22,0,.34.06.64.2.87.13.24.35.45.66.64.28.18.69.35,1.23.51.54.16.9.28,1.08.36.72.31,1.26.73,1.6,1.24.34.52.51,1.17.51,1.97,0,1-.36,1.83-1.05,2.48-.7.65-1.58.98-2.65.97-1.09,0-1.97-.36-2.63-1.08-.66-.72-1-1.68-1.04-2.89Z"></path><path class="cls-2" d="m127.39,54.69c.22.68.63,1.21,1.22,1.58.59.38,1.31.57,2.15.57,1.32,0,2.39-.43,3.19-1.31.8-.88,1.21-2.05,1.21-3.52v-.31c-.57.77-1.21,1.34-1.93,1.73-.72.39-1.51.58-2.38.58-1.75,0-3.2-.59-4.35-1.76-1.15-1.17-1.72-2.62-1.72-4.36,0-1.71.58-3.15,1.73-4.3,1.15-1.16,2.56-1.73,4.24-1.73.98,0,1.83.18,2.54.54.71.36,1.34.91,1.89,1.66v-1.9s1.46,0,1.46,0l-.04,9.7c0,2.03-.52,3.61-1.54,4.75-1.02,1.14-2.43,1.7-4.22,1.7-1.32,0-2.45-.33-3.39-.99-.94-.65-1.55-1.53-1.82-2.62h1.73Zm-1.01-6.86c0,1.36.42,2.5,1.28,3.42.86.92,1.9,1.38,3.12,1.38,1.15,0,2.16-.45,3.05-1.37.88-.92,1.33-1.99,1.33-3.23,0-1.32-.42-2.46-1.29-3.4-.86-.94-1.88-1.41-3.06-1.42-1.21,0-2.25.44-3.12,1.33-.87.89-1.31,1.98-1.31,3.29Z"></path><path class="cls-2" d="m140.49,53.79h-1.51s.04-11.63.04-11.63h1.4s0,1.35,0,1.35c.37-.51.77-.89,1.2-1.13.43-.24.94-.36,1.52-.38v1.62c-.93.08-1.6.36-2.01.83-.41.47-.61,1.25-.62,2.32l-.03,7.02Z"></path><path class="cls-2" d="m143.25,47.99c0-1.7.6-3.16,1.77-4.37,1.17-1.21,2.56-1.81,4.16-1.8,1.68,0,3.12.61,4.3,1.8,1.18,1.2,1.77,2.62,1.77,4.26,0,1.73-.59,3.21-1.76,4.43-1.17,1.22-2.58,1.83-4.23,1.82-1.68,0-3.11-.61-4.27-1.82-1.16-1.21-1.74-2.65-1.73-4.33Zm1.56-.02c0,1.34.42,2.46,1.27,3.37s1.91,1.36,3.18,1.37c1.25,0,2.29-.44,3.14-1.35.85-.9,1.28-2.03,1.28-3.38,0-1.37-.42-2.5-1.27-3.39-.85-.89-1.94-1.33-3.25-1.34-1.18,0-2.2.45-3.05,1.35-.85.91-1.28,2.03-1.29,3.37Z"></path><path class="cls-2" d="m156.91,42.22h1.47s-.02,6.17-.02,6.17c0,1.58.25,2.71.76,3.37.51.66,1.36.99,2.53,1,.67,0,1.26-.13,1.77-.4.51-.27.92-.66,1.23-1.17.18-.3.31-.66.38-1.07.08-.41.12-1.13.12-2.15l.02-5.71h1.49s-.04,11.63-.04,11.63h-1.49s0-1.26,0-1.26c-.45.55-.96.94-1.51,1.19-.56.24-1.23.36-2.02.36-1.68,0-2.88-.46-3.62-1.37-.74-.91-1.1-2.41-1.09-4.51l.02-6.06Z"></path><path class="cls-2" d="m169.04,42.27h1.47s0,1.91,0,1.91c.42-.65,1.03-1.18,1.82-1.56.79-.39,1.62-.58,2.51-.58,1.75,0,3.2.59,4.35,1.76,1.15,1.17,1.72,2.63,1.71,4.37,0,1.71-.58,3.14-1.72,4.3-1.14,1.16-2.56,1.74-4.27,1.74-.94,0-1.79-.19-2.55-.56-.76-.37-1.38-.9-1.88-1.6v.8s0,1.73,0,1.73v3.06s-1.48,0-1.48,0l.06-15.38Zm1.45,5.74c0,1.32.43,2.46,1.3,3.4.87.94,1.9,1.42,3.08,1.42,1.22,0,2.27-.44,3.14-1.33.88-.89,1.32-1.98,1.32-3.27,0-1.36-.43-2.5-1.3-3.42-.87-.92-1.93-1.39-3.18-1.39-1.15,0-2.16.45-3.04,1.37-.88.92-1.32,1.99-1.32,3.22Z"></path><path id="path3708" class="cls-1" d="m62.53,31.37c-.06,17.27-14.11,31.21-31.38,31.15C13.88,62.47-.06,48.42,0,31.15.06,13.89,14.11-.06,31.37,0c17.27.06,31.21,14.11,31.15,31.37Z"></path><path class="cls-3" d="m31.26,13.74c-6.49,0-11.75,5.26-11.75,11.76s5.26,11.76,11.75,11.76,11.76-5.26,11.76-11.76-5.27-11.76-11.76-11.76Z"></path><path class="cls-3" d="m43.02,37.02c0,6.49-5.27,11.76-11.76,11.76s-11.75-5.27-11.75-11.76,5.26-11.75,11.75-11.75,11.76,5.27,11.76,11.75Z"></path></svg>